<?xml version="1.0" encoding="UTF-8"?>
<svg version="1.1" xmlns="http://www.w3.org/2000/svg" width="104" height="21">
<path d="M0 0 C233.97 0 467.94 0 709 0 C709 155.76 709 311.52 104 21 C475.03 472 241.06 472 0 472 C0 316.24 0 160.48 0 0 Z " fill="#FEFEFE" transform="translate(0,0)"/>
<path d="M0 0 C12.21 0 24.42 0 37 0 C39.94146513 4.70634421 42.72988073 9.19846023 45.3125 14.0625 C45.90627441 15.17657227 46.50004883 16.29064453 47.11181641 17.43847656 C47.41935852 18.01859497 47.72690063 18.59871338 48.04376221 19.19641113 C49.36048046 21.67991304 50.68363758 24.15996478 52.00650024 26.64019775 C52.6851568 27.91262534 53.36352131 29.18520873 54.04159546 30.45794678 C57.2100337 36.40276055 60.41214003 42.3290805 63.625 48.25 C64.40701782 49.69137329 64.40701782 49.69137329 65.20483398 51.16186523 C66.25899225 53.10455857 67.313273 55.04718546 68.36767578 56.98974609 C70.1007017 60.18570924 71.83003183 63.38365166 73.55859375 66.58203125 C74.43813721 68.20866699 74.43813721 68.20866699 75.33544922 69.86816406 C76.4535557 71.93620269 77.57110521 74.00454258 78.68798828 76.07324219 C79.19442871 77.00942383 79.70086914 77.94560547 80.22265625 78.91015625 C80.66359619 79.72621338 81.10453613 80.54227051 81.55883789 81.38305664 C82.99378735 84.12695449 82.99378735 84.12695449 85.14916992 86.90039062 C88.38187255 92.58692647 87.48847505 99.34832314 87.390625 105.68359375 C87.38315444 107.10847679 87.37746536 108.53337018 87.37347412 109.95826721 C87.35828152 113.68867914 87.31905658 117.41845722 87.2746582 121.14862061 C87.23356652 124.9629255 87.21543363 128.77733391 87.1953125 132.59179688 C87.15255453 140.06148528 87.08438264 147.53065346 87 155 C83.7 155 80.4 155 77 155 C76.50709473 154.03924561 76.01418945 153.07849121 75.50634766 152.08862305 C66.7467335 135.01831303 57.97165631 117.96011741 49 101 C45.37 94.07 41.74 87.14 38 80 C37.67 104.75 37.34 129.5 37 155 C24.79 155 12.58 155 0 155 C0 103.85 0 52.7 0 0 Z " fill="#EB2326" transform="translate(56,163)"/>
<path d="M0 0 C12.21 0 24.42 0 37 0 C37 51.15 37 102.3 37 155 C24.79 155 12.58 155 0 155 C-0.33 130.58 -0.66 106.16 -1 81 C-4.3 87.6 -7.6 94.2 -11 101 C-16.34227672 111.20511835 -16.34227672 111.20511835 -18.35546875 114.9921875 C-20.80591569 119.61781296 -23.21419662 124.26463369 -25.61816406 128.91455078 C-27.15068057 131.86657621 -28.70022604 134.80906939 -30.25390625 137.75 C-31.8900974 140.84840192 -33.47172437 143.95540968 -34.96484375 147.125 C-35.51269531 148.218125 -36.06054688 149.31125 -36.625 150.4375 C-37.05039063 151.34371094 -37.47578125 152.24992188 -37.9140625 153.18359375 C-40.55835729 155.48621 -41.69309212 155.19365849 -45.13037109 155.11352539 C-46.03967377 155.09713516 -46.94897644 155.08074493 -47.88583374 155.06385803 C-48.58350861 155.04278488 -49.28118347 155.02171173 -50 155 C-53.0927848 87.48892618 -53.0927848 87.48892618 -36.98339844 66.66943359 C-33.74926812 62.31665407 -31.3686028 57.55134964 -28.875 52.75 C-27.91053334 50.97683015 -26.94179546 49.20597669 -25.96875 47.4375 C-22.75089041 41.55243058 -19.56376356 35.6508683 -16.375 29.75 C-10.99046005 19.79121886 -5.51905411 9.88487304 0 0 Z " fill="#020202" transform="translate(197,163)"/>
<path d="M0 0 C5.84910927 3.03561367 10.64643023 6.59095505 13.4296875 12.7421875 C15.30731705 19.68308773 15.52707714 28.21432669 12.5625 34.875 C9.3209444 40.12540696 4.14010512 44.66298998 -1.671875 46.8359375 C-10.03025993 48.64395694 -18.28998138 48.25645815 -25.75 43.9375 C-30.71640457 40.13966121 -33.9359834 35.22562719 -35.875 29.3125 C-36.7264868 21.57981175 -36.55283978 14.73306441 -31.875 8.3125 C-23.94929137 -1.11266702 -11.61736198 -4.89983975 0 0 Z " fill="#030303" transform="translate(388.875,203.6875)"/>
<path d="M0 0 C3.3 0 6.6 0 10 0 C15.40171302 10.49957968 20.27711048 21.18028947 25 32 C27.62670014 28.79849662 29.23271301 25.52775713 30.8828125 21.73828125 C31.67365234 19.93713867 31.67365234 19.93713867 32.48046875 18.09960938 C33.02897774 16.83738376 33.57715094 15.57501218 34.125 14.3125 C35.20792463 11.82808777 36.29476924 9.34546347 37.3828125 6.86328125 C37.86121582 5.76282471 38.33961914 4.66236816 38.83251953 3.52856445 C40 1 40 1 41 0 C44.3 0 47.6 0 51 0 C51 15.51 51 31.02 51 47 C48.03 47 45.06 47 42 47 C41.67 37.76 41.34 28.52 41 19 C40.14535156 20.93746094 39.29070312 22.87492187 38.41015625 24.87109375 C37.58332093 26.74121404 36.7556892 28.6109799 35.92797852 30.48071289 C35.35194796 31.78307816 34.77674964 33.08581185 34.20239258 34.38891602 C33.37798665 36.25894464 32.55062363 38.12763976 31.72265625 39.99609375 C31.22515869 41.12200928 30.72766113 42.2479248 30.21508789 43.40795898 C29 46 29 46 28 47 C26.02 47 24.04 47 22 47 C15.565 32.645 15.565 32.645 9 18 C8.67 27.57 8.34 37.14 8 47 C5.36 47 2.72 47 0 47 C0 31.49 0 15.98 0 0 Z " fill="#010101" transform="translate(286,203)"/>
<path d="M0 0 C9.9 0 19.8 0 30 0 C30 2.64 30 5.28 30 8 C23.07 8 16.14 8 9 8 C9 11.63 9 15.26 9 19 C14.61 19 20.22 19 26 19 C26 21.31 26 23.62 26 26 C20.39 26 14.78 26 9 26 C9 30.62 9 35.24 9 40 C15.93 40 22.86 40 30 40 C30 42.31 30 44.62 30 47 C20.1 47 10.2 47 0 47 C0 31.49 0 15.98 0 0 Z " fill="#010101" transform="translate(574,203)"/>
<path d="M0 0 C4.96728123 6.13605328 4.89614356 11.90416025 4.125 19.625 C2.64850227 24.10776888 0.08492801 27.09265473 -3.875 29.625 C-8.81664578 31.02849464 -13.50179813 31.19678097 -18.25 29.125 C-22.14397695 26.79176685 -24.62758972 24.02624005 -25.875 19.625 C-26.62764785 13.17991212 -26.83911863 7.0426288 -22.875 1.625 C-15.92453026 -5.32546974 -7.6923024 -6.35451068 0 0 Z " fill="#FCFCFC" transform="translate(388.875,213.375)"/>
<path d="M0 0 C-0.375 2.9375 -0.375 2.9375 -1 6 C-3 7 -3 7 -4.91796875 6.40625 C-5.66691406 6.1071875 -6.41585937 5.808125 -7.1875 5.5 C-11.65214106 3.91321319 -14.42535195 3.85633799 -19 5 C-20.35618499 6.12534105 -20.35618499 6.12534105 -20.0625 9.0625 C-20.041875 10.031875 -20.02125 11.00125 -20 12 C-18.91332031 12.38091797 -18.91332031 12.38091797 -17.8046875 12.76953125 C-3.26442737 17.94586386 -3.26442737 17.94586386 1 23 C2.66816613 28.00449839 2.8978967 33.03317865 0.6875 37.875 C0.130625 38.57625 -0.42625 39.2775 -1 40 C-1.433125 40.556875 -1.86625 41.11375 -2.3125 41.6875 C-7.39421968 45.63994864 -13.85608644 45.72650657 -20 45 C-23.5667641 44.0898602 -26.97537128 43.13251601 -30 41 C-31.08005143 37.64450042 -31.11247704 35.33743111 -30 32 C-29.484375 32.268125 -28.96875 32.53625 -28.4375 32.8125 C-27.633125 33.204375 -26.82875 33.59625 -26 34 C-24.9275 34.53625 -23.855 35.0725 -22.75 35.625 C-18.33244114 37.24477158 -15.66055616 37.38837968 -11 37 C-10.01 36.34 -9.02 35.68 -8 35 C-7.33323122 31.54250051 -7.33323122 31.54250051 -8 28 C-11.28037373 25.59243999 -14.64775774 24.34776229 -18.5 23.125 C-23.88292396 21.23880023 -27.37328403 19.25343194 -30 14 C-30.43281664 9.76339098 -30.44858706 6.08605289 -28.8125 2.125 C-20.82797359 -7.23616889 -9.79817044 -4.49752086 0 0 Z " fill="#030303" transform="translate(655,206)"/>
<path d="M0 0 C2.97 0 5.94 0 9 0 C12.47150392 6.68345615 15.38515888 13.53776983 18.25 20.5 C18.70890625 21.60859375 19.1678125 22.7171875 19.640625 23.859375 C20.76302852 26.57185018 21.88274905 29.28539941 23 32 C26.31119083 24.87255045 29.38850043 17.69383544 32.25 10.375 C32.94034995 8.61105435 33.63293347 6.84798064 34.328125 5.0859375 C34.77526855 3.9419751 34.77526855 3.9419751 35.23144531 2.77490234 C36 1 36 1 37 0 C40.00003445 -0.14177857 42.99757235 -0.04228771 46 0 C44.02880596 6.20348896 41.75865587 12.20511952 39.20703125 18.19140625 C38.85613937 19.02212143 38.5052475 19.85283661 38.14372253 20.70872498 C37.03649293 23.32800851 35.92458538 25.94527497 34.8125 28.5625 C34.0550266 30.35208154 33.29786228 32.14179393 32.54101562 33.93164062 C30.69757641 38.2892798 28.8499429 42.64511809 27 47 C24.36 47 21.72 47 19 47 C16.7761373 41.85886956 14.55242814 36.71767275 12.32885742 31.57641602 C11.57336515 29.82965324 10.81783189 28.08290819 10.06225586 26.33618164 C8.97238402 23.81661634 7.88266256 21.29698605 6.79296875 18.77734375 C6.45847214 18.00414291 6.12397552 17.23094208 5.77934265 16.43431091 C5.14770401 14.97365587 4.51759442 13.51233836 3.88925171 12.05026245 C3.30225693 10.69688484 2.70511735 9.34785664 2.09732056 8.00369263 C0.81720184 5.14272725 0 3.17470036 0 0 Z " fill="#030303" transform="translate(509,203)"/>
<path d="M0 0 C13.53 0 27.06 0 41 0 C41 2.64 41 5.28 41 8 C35.72 8 30.44 8 25 8 C25 20.87 25 33.74 25 47 C22.03 47 19.06 47 16 47 C16 34.13 16 21.26 16 8 C10.72 8 5.44 8 0 8 C0 5.36 0 2.72 0 0 Z " fill="#010101" transform="translate(415,203)"/>
<path d="M0 0 C2.97 0 5.94 0 9 0 C9 15.51 9 31.02 9 47 C6.03 47 3.06 47 0 47 C0 31.49 0 15.98 0 0 Z " fill="#010101" transform="translate(478,203)"/>
<path d="M0 0 C1.32 0.33 2.64 0.66 4 1 C5.75 4.0625 5.75 4.0625 7 7 C8.74271938 4.702779 10.39911152 2.40133271 12 0 C12.99 0 13.98 0 15 0 C15 4.62 15 9.24 15 14 C14.01 14 13.02 14 12 14 C11.67 12.35 11.34 10.7 11 9 C10.34 10.65 9.68 12.3 9 14 C8.01 14 7.02 14 6 14 C5.34 12.35 4.68 10.7 4 9 C3.67 10.65 3.34 12.3 3 14 C2.01 14 1.02 14 0 14 C0 9.38 0 4.76 0 0 Z " fill="#141414" transform="translate(509,265)"/>
<path d="M0 0 C0.99 0 1.98 0 3 0 C4.38671875 1.53125 4.38671875 1.53125 5.6875 3.5 C6.12449219 4.1496875 6.56148438 4.799375 7.01171875 5.46875 C7.33785156 5.9740625 7.66398437 6.479375 8 7 C8.33 4.69 8.66 2.38 9 0 C9.66 0 10.32 0 11 0 C11 4.62 11 9.24 11 14 C10.34 14 9.68 14 9 14 C7.7109375 12.46875 7.7109375 12.46875 6.375 10.5 C5.92898438 9.8503125 5.48296875 9.200625 5.0234375 8.53125 C4.51683594 7.77328125 4.51683594 7.77328125 4 7 C3.67 9.31 3.34 11.62 3 14 C2.01 14 1.02 14 0 14 C0 9.38 0 4.76 0 0 Z " fill="#030303" transform="translate(476,265)"/>
<path d="M0 0 C2.97 0 5.94 0 9 0 C9 0.99 9 1.98 9 3 C7.02 3 5.04 3 3 3 C3 3.66 3 4.32 3 5 C4.65 5 6.3 5 8 5 C8 5.99 8 6.98 8 8 C6.35 8 4.7 8 3 8 C3 8.99 3 9.98 3 11 C4.98 11 6.96 11 9 11 C9 11.99 9 12.98 9 14 C6.03 14 3.06 14 0 14 C0 9.38 0 4.76 0 0 Z " fill="#070707" transform="translate(446,265)"/>
<path d="M0 0 C0.99 0 1.98 0 3 0 C3.83764268 1.95649397 4.66999059 3.91525556 5.5 5.875 C5.9640625 6.96554687 6.428125 8.05609375 6.90625 9.1796875 C8 12 8 12 8 14 C7.01 14 6.02 14 5 14 C4.67 12.68 4.34 11.36 4 10 C2.35 10 0.7 10 -1 10 C-1.33 11.32 -1.66 12.64 -2 14 C-2.99 14 -3.98 14 -5 14 C-3.45730076 9.27934033 -1.92205381 4.58335908 0 0 Z " fill="#111111" transform="translate(497,265)"/>
<path d="M0 0 C3 4 3 4 4 7 C3.34 7 2.68 7 2 7 C1.67 29.77 1.34 52.54 1 76 C0.67 76 0.34 76 0 76 C0 50.92 0 25.84 0 0 Z " fill="#FFE1E4" transform="translate(93,241)"/>
<path d="M0 0 C0.99 0 1.98 0 3 0 C4.32 2.31 5.64 4.62 7 7 C7.99 4.69 8.98 2.38 10 0 C10.99 0 11.98 0 13 0 C11.45730076 4.72065967 9.92205381 9.41664092 8 14 C5 13 5 13 3.61328125 10.56640625 C2.96939453 9.07947266 2.96939453 9.07947266 2.3125 7.5625 C1.87550781 6.57378906 1.43851562 5.58507812 0.98828125 4.56640625 C0 2 0 2 0 0 Z " fill="#090909" transform="translate(420,265)"/>
<path d="M0 0 C3.96 0 7.92 0 12 0 C12 0.99 12 1.98 12 3 C10.68 3 9.36 3 8 3 C8 6.63 8 10.26 8 14 C7.01 14 6.02 14 5 14 C5 10.37 5 6.74 5 3 C3.35 3 1.7 3 0 3 C0 2.01 0 1.02 0 0 Z " fill="#080808" transform="translate(459,265)"/>
<path d="M0 0 C0.99 0 1.98 0 3 0 C3 4.62 3 9.24 3 14 C2.01 14 1.02 14 0 14 C0 9.38 0 4.76 0 0 Z " fill="#222222" transform="translate(438,265)"/>
<path d="M0 0 C4 2 4 2 5.25 5.125 C5.4975 6.07375 5.745 7.0225 6 8 C4.35 8 2.7 8 1 8 C0.67 8.66 0.34 9.32 0 10 C0 6.7 0 3.4 0 0 Z " fill="#FEF4F2" transform="translate(94,247)"/>
<path d="M0 0 C3 4 3 4 4 7 C3.34 7 2.68 7 2 7 C1.67 11.29 1.34 15.58 1 20 C0.67 20 0.34 20 0 20 C0 13.4 0 6.8 0 0 Z " fill="#FFD9D8" transform="translate(93,241)"/>
<path d="M0 0 C0.99 0 1.98 0 3 0 C3.268125 1.051875 3.53625 2.10375 3.8125 3.1875 C4.81183586 6.9461743 4.81183586 6.9461743 6.6875 9.75 C7.120625 10.4925 7.55375 11.235 8 12 C7.67 12.99 7.34 13.98 7 15 C5.82823482 12.87767021 4.66245215 10.75242209 3.5 8.625 C3.16613281 8.02171875 2.83226563 7.4184375 2.48828125 6.796875 C0 2.2265625 0 2.2265625 0 0 Z " fill="#D03537" transform="translate(109,270)"/>
</svg>
